<?xml version="1.0" ?><!DOCTYPE svg  PUBLIC '-//W3C//DTD SVG 1.1//EN'  'http://www.w3.org/Graphics/SVG/1.1/DTD/svg11.dtd'><svg enable-background="new 0 0 36 36" height="36px" id="Layer_1" version="1.1" viewBox="0 0 36 36" width="36px" xml:space="preserve" xmlns="http://www.w3.org/2000/svg" xmlns:xlink="http://www.w3.org/1999/xlink"><g><defs><rect height="36" id="SVGID_1_" width="36"/></defs><g><defs><rect height="36" id="SVGID_3_" width="36"/></defs><path d="M13.723,15.096c-1.29,0-2.334,1.044-2.334,2.333    c0,1.289,1.044,2.334,2.334,2.334c1.287,0,2.333-1.046,2.333-2.334C16.056,16.14,15.01,15.096,13.723,15.096" fill="#231F20"/><path d="M32,22h-1v-2.888c0-5.428-4.328-10.471-9.893-12.01    c0.252-0.486,0.392-1.033,0.392-1.602c0-1.93-1.57-3.5-3.5-3.5c-1.93,0-3.5,1.57-3.5,3.5c0,0.57,0.14,1.117,0.392,1.602    C9.327,8.642,5,13.685,5,19.112V22H4c-1.104,0-2,0.896-2,2v8c0,1.104,0.896,2,2,2h28c1.104,0,2-0.896,2-2v-8    C34,22.896,33.104,22,32,22 M7,19.112c0-4.953,4.727-9.982,10.5-10.453V6.908c-0.582-0.206-1.001-0.755-1.001-1.408    c0-0.829,0.672-1.5,1.5-1.5s1.5,0.671,1.5,1.5c0,0.652-0.418,1.201-0.999,1.408v1.751C24.273,9.13,29,14.159,29,19.112V23H7    V19.112z M32,32H4v-8h28V32z" fill="#231F20"/><path d="M22.277,15.096c-1.289,0-2.333,1.044-2.333,2.333    c0,1.289,1.044,2.334,2.333,2.334s2.334-1.046,2.334-2.334C24.611,16.14,23.566,15.096,22.277,15.096" fill="#231F20"/></g></g></svg>